PathFileType	4	(x/y/z)	TRC_MarkerData\Passive\Passive_Pref0005.trc
DataRate	CameraRate	NumFrames	NumMarkers	Units	OrigDataRate	OrigDataStartFrame	OrigNumFrames
240	240	10	50	mm	240	77	304
Frame#	Time	R_AC			L_AC			HEAD			STERN			C7			L_IC			R_IC			L_ASIS			R_ASIS			L_GT			R_GT			L_PSIS			R_PSIS			SACRAL			L_LAT_KNEE			L_MED_KNEE			R_LAT_KNEE			R_MED_KNEE			L_LAT_ANK			L_MED_ANK			R_LAT_ANK			R_MED_ANK			L_THIGH_PROX_POST			L_THIGH_PROX_ANT			L_THIGH_DIST_ANT			L_THIGH_DIST_POST			R_THIGH_PROX_POST			R_THIGH_PROX_ANT			R_THIGH_DIST_ANT			R_THIGH_DIST_POST			L_SHANK_PROX_POST			L_SHANK_PROX_ANT			L_SHANK_DIST_ANT			L_SHANK_DIST_POST			R_SHANK_PROX_POST			R_SHANK_PROX_ANT			R_SHANK_DIST_ANT			R_SHANK_DIST_POST			L_HEEL_LAT			L_HEEL_SUP			L_HEEL_MED			R_HEEL_LAT			R_HEEL_SUP			R_HEEL_MED			L_1ST_MET			L_5TH_MET			L_TOE			R_1ST_MET			R_5TH_MET			R_TOE			
		X1	Y1	Z1	X2	Y2	Z2	X3	Y3	Z3	X4	Y4	Z4	X5	Y5	Z5	X6	Y6	Z6	X7	Y7	Z7	X8	Y8	Z8	X9	Y9	Z9	X10	Y10	Z10	X11	Y11	Z11	X12	Y12	Z12	X13	Y13	Z13	X14	Y14	Z14	X15	Y15	Z15	X16	Y16	Z16	X17	Y17	Z17	X18	Y18	Z18	X19	Y19	Z19	X20	Y20	Z20	X21	Y21	Z21	X22	Y22	Z22	X23	Y23	Z23	X24	Y24	Z24	X25	Y25	Z25	X26	Y26	Z26	X27	Y27	Z27	X28	Y28	Z28	X29	Y29	Z29	X30	Y30	Z30	X31	Y31	Z31	X32	Y32	Z32	X33	Y33	Z33	X34	Y34	Z34	X35	Y35	Z35	X36	Y36	Z36	X37	Y37	Z37	X38	Y38	Z38	X39	Y39	Z39	X40	Y40	Z40	X41	Y41	Z41	X42	Y42	Z42	X43	Y43	Z43	X44	Y44	Z44	X45	Y45	Z45	X46	Y46	Z46	X47	Y47	Z47	X48	Y48	Z48	X49	Y49	Z49	X50	Y50	Z50	

77	0.31771	-492.71	1540.4	429.19	-481.49	1560.5	39.325	-368.17	1846.5	249.77	-385.89	1508.2	240.04	-528.21	1594.2	235.01	-486.66	1098.8	83.362	-498.53	1126.6	420.51	-421.3	1044.2	117.13	-429.22	1045	387.31	-508.99	965.59	64.816	-509.5	972.41	438	-630.91	1068	201.3	-625.38	1065.3	308.86	-642.05	1042	256.18	-479.4	561.09	109.84	-468.37	574.19	245.67	-402.44	566.82	434.74	-359.43	555.9	302.62	-525.4	115.37	142.04	-532.37	119.75	218.24	-691.47	221.62	370.47	-641.49	216.7	280.19	-531.58	812.06	82.863	-465.77	806.07	77.581	-465.61	731.12	89.362	-533.59	736.25	99.225	-480.16	793.77	439.75	-414.61	812.38	447.59	-401.1	740.35	447.25	-465.32	720.42	435.05	-473.34	507.98	119.5	-431.91	524.31	132.7	-430.87	474.36	141.17	-477.54	454.26	126.86	-538.33	486.67	410.19	-482.47	453.14	436.92	-521.1	390.32	425.84	-577.42	421.44	401.02	-586.7	40.821	143.36	-599.22	67.359	177.26	-591.12	37.081	209.43	-772.03	211.67	328.91	-755.77	233.69	294.69	-750.33	199.12	266.67	-368.19	54.731	247.97	-378.29	45.799	141.97	-315.75	67.06	226.46	-568.15	74.09	323.93	-626.25	90.104	419.39	-538.06	63.461	383.37
78	0.32189	-487.53	1540.7	429.25	-475.9	1561.1	39.471	-362.75	1846.9	250.08	-380.6	1508.4	240.18	-522.82	1594.6	235.11	-481.64	1099.2	83.197	-493.49	1127	420.43	-416.49	1044.3	116.86	-424.06	1045.7	387.03	-504.52	965.78	64.792	-503.95	973.16	438.11	-625.97	1068.3	201.42	-620.34	1065.6	309.04	-637.03	1042.3	256.36	-476.9	561.18	109.84	-465.77	574.24	245.67	-393.6	568.25	434.74	-350.88	557.76	302.62	-525.05	115.6	142.09	-532.04	120.06	218.24	-676.93	217.59	370.95	-626.84	213.7	280.68	-527.79	812.42	82.882	-462.06	806.14	77.499	-462.26	731.18	89.303	-530.34	736.49	99.403	-473.1	794.72	440.13	-407.54	813.84	447.62	-393.59	741.98	447.35	-457.71	721.5	435.5	-471.09	508.06	119.5	-429.55	524.2	132.67	-428.75	474.25	141.14	-475.53	454.36	126.87	-528.61	485.67	410.34	-472.14	453.16	437.09	-509.65	389.64	426.09	-566.55	419.72	401.29	-586.59	41.134	143.38	-599.05	67.67	177.29	-590.9	37.302	209.42	-757.27	205.7	329.55	-741.78	228.1	295.15	-735.39	193.5	267.3	-368.01	54.489	247.96	-378.15	45.62	141.97	-315.54	66.664	226.45	-550.15	72.999	324.73	-608.61	87.752	420.13	-519.83	63.207	384.18
79	0.32607	-482.32	1540.9	429.31	-470.34	1561.6	39.619	-357.34	1847.1	250.39	-375.31	1508.7	240.3	-517.42	1595	235.22	-476.65	1099.5	83.039	-488.44	1127.3	420.37	-411.68	1044.4	116.59	-418.9	1046.2	386.77	-500.06	965.95	64.771	-498.41	973.87	438.22	-621.04	1068.6	201.55	-615.31	1066	309.22	-632.01	1042.6	256.55	-474.39	561.27	109.85	-463.18	574.29	245.69	-384.87	569.65	434.74	-342.45	559.58	302.63	-524.69	115.84	142.14	-531.71	120.36	218.25	-662.29	213.51	371.42	-612.07	210.62	281.18	-523.99	812.76	82.929	-458.36	806.18	77.425	-458.9	731.23	89.255	-527.01	736.75	99.542	-466.08	795.64	440.53	-400.52	815.26	447.65	-386.15	743.56	447.45	-450.16	722.54	435.95	-468.83	508.13	119.5	-427.2	524.09	132.64	-426.63	474.13	141.13	-473.51	454.46	126.88	-518.95	484.57	410.48	-461.86	453.14	437.26	-498.22	388.91	426.34	-555.68	417.93	401.54	-586.47	41.456	143.39	-598.87	67.988	177.31	-590.65	37.524	209.41	-742.32	199.67	330.17	-727.61	222.43	295.59	-720.27	187.82	267.92	-367.84	54.25	247.96	-378.03	45.448	141.98	-315.33	66.274	226.45	-532.08	71.928	325.57	-590.92	85.431	420.91	-501.57	62.984	385.04
80	0.33025	-477.11	1541.1	429.39	-464.8	1562.1	39.767	-351.93	1847.4	250.72	-370.02	1508.8	240.43	-512.03	1595.3	235.33	-471.68	1099.8	82.887	-483.38	1127.7	420.31	-406.87	1044.5	116.34	-413.73	1046.8	386.51	-495.6	966.1	64.754	-492.88	974.53	438.34	-616.12	1068.9	201.69	-610.29	1066.3	309.4	-627	1042.8	256.74	-471.88	561.35	109.88	-460.59	574.32	245.72	-376.25	571	434.74	-334.15	561.34	302.65	-524.33	116.08	142.19	-531.36	120.66	218.25	-647.54	209.38	371.91	-597.17	207.49	281.71	-520.19	813.07	83.001	-454.67	806.22	77.357	-455.55	731.26	89.218	-523.6	737.04	99.638	-459.13	796.54	440.94	-393.56	816.64	447.68	-378.78	745.09	447.54	-442.69	723.55	436.4	-466.57	508.2	119.52	-424.85	523.98	132.62	-424.52	474.01	141.12	-471.5	454.56	126.91	-509.33	483.39	410.61	-451.65	453.06	437.43	-486.81	388.14	426.59	-544.83	416.05	401.78	-586.35	41.786	143.41	-598.69	68.313	177.33	-590.4	37.749	209.41	-727.19	193.6	330.78	-713.25	216.69	296.02	-704.94	182.1	268.54	-367.68	54.015	247.95	-377.9	45.284	141.98	-315.13	65.89	226.44	-513.96	70.889	326.46	-573.16	83.152	421.73	-483.3	62.804	385.96
81	0.33443	-471.87	1541.2	429.46	-459.28	1562.6	39.915	-346.53	1847.6	251.04	-364.73	1509	240.54	-506.63	1595.6	235.46	-466.74	1100	82.742	-478.31	1127.9	420.27	-402.05	1044.5	116.1	-408.55	1047.2	386.27	-491.14	966.23	64.742	-487.37	975.16	438.47	-611.21	1069.1	201.83	-605.27	1066.5	309.59	-622	1043	256.93	-469.38	561.43	109.92	-458.02	574.35	245.76	-367.74	572.3	434.73	-325.96	563.05	302.66	-523.98	116.33	142.25	-531.01	120.96	218.27	-632.7	205.21	372.39	-582.16	204.32	282.26	-516.39	813.38	83.095	-450.99	806.23	77.296	-452.21	731.28	89.192	-520.12	737.37	99.69	-452.24	797.41	441.35	-386.67	817.96	447.72	-371.49	746.57	447.63	-435.3	724.53	436.84	-464.32	508.27	119.55	-422.5	523.87	132.61	-422.41	473.89	141.12	-469.49	454.66	126.94	-499.77	482.12	410.71	-441.5	452.93	437.6	-475.42	387.32	426.85	-533.98	414.1	402.01	-586.23	42.122	143.43	-598.51	68.644	177.36	-590.13	37.977	209.41	-711.87	187.5	331.37	-698.71	210.91	296.44	-689.42	176.35	269.14	-367.51	53.785	247.95	-377.77	45.128	141.99	-314.94	65.513	226.44	-495.78	69.893	327.41	-555.36	80.925	422.59	-465.01	62.675	386.93
82	0.33861	-466.62	1541.3	429.55	-453.78	1563	40.064	-341.12	1847.8	251.38	-359.44	1509.1	240.65	-501.23	1595.9	235.59	-461.82	1100.2	82.603	-473.23	1128.1	420.24	-397.23	1044.5	115.88	-403.36	1047.7	386.05	-486.68	966.34	64.735	-481.86	975.74	438.59	-606.3	1069.3	201.98	-600.25	1066.8	309.79	-617.01	1043.2	257.12	-466.88	561.5	109.97	-455.45	574.37	245.8	-359.35	573.56	434.71	-317.91	564.7	302.69	-523.63	116.59	142.3	-530.64	121.26	218.29	-617.76	201.03	372.89	-567.03	201.12	282.83	-512.59	813.67	83.206	-447.31	806.24	77.245	-448.87	731.3	89.176	-516.56	737.73	99.698	-445.41	798.23	441.77	-379.88	819.25	447.77	-364.28	747.98	447.71	-427.99	725.46	437.29	-462.07	508.33	119.58	-420.15	523.75	132.61	-420.3	473.76	141.13	-467.49	454.75	126.98	-490.25	480.77	410.8	-431.42	452.75	437.77	-464.06	386.47	427.11	-523.15	412.07	402.23	-586.11	42.462	143.44	-598.33	68.979	177.38	-589.85	38.21	209.42	-696.37	181.37	331.94	-683.96	205.07	296.85	-673.71	170.59	269.73	-367.35	53.561	247.94	-377.64	44.981	142	-314.74	65.145	226.43	-477.55	68.953	328.4	-537.51	78.761	423.48	-446.71	62.611	387.97
83	0.34279	-461.34	1541.4	429.63	-448.31	1563.3	40.213	-335.72	1848	251.72	-354.15	1509.2	240.75	-495.83	1596.1	235.73	-456.92	1100.3	82.473	-468.14	1128.3	420.22	-392.4	1044.5	115.67	-398.16	1048.1	385.84	-482.22	966.42	64.737	-476.37	976.28	438.72	-601.4	1069.5	202.13	-595.24	1067	309.99	-612.01	1043.4	257.31	-464.39	561.57	110.03	-452.89	574.39	245.86	-351.08	574.76	434.69	-309.97	566.29	302.72	-523.29	116.85	142.35	-530.26	121.56	218.31	-602.73	196.83	373.39	-551.79	197.9	283.42	-508.8	813.96	83.331	-443.64	806.23	77.203	-445.53	731.3	89.169	-512.95	738.12	99.666	-438.66	799.02	442.19	-373.19	820.49	447.82	-357.16	749.33	447.8	-420.76	726.36	437.72	-459.83	508.39	119.62	-417.82	523.63	132.61	-418.2	473.64	141.14	-465.49	454.84	127.02	-480.78	479.33	410.87	-421.4	452.53	437.93	-452.73	385.58	427.37	-512.32	409.98	402.43	-586	42.806	143.46	-598.15	69.318	177.4	-589.59	38.451	209.43	-680.7	175.22	332.49	-669.03	199.21	297.26	-657.81	164.81	270.3	-367.19	53.342	247.94	-377.52	44.841	142.01	-314.55	64.785	226.43	-459.27	68.079	329.44	-519.62	76.671	424.41	-428.4	62.622	389.06
84	0.34697	-456.06	1541.4	429.73	-442.87	1563.7	40.361	-330.3	1848.1	252.06	-348.86	1509.3	240.85	-490.44	1596.4	235.87	-452.04	1100.4	82.355	-463.04	1128.5	420.21	-387.57	1044.5	115.48	-392.96	1048.4	385.66	-477.76	966.5	64.747	-470.89	976.77	438.86	-596.51	1069.6	202.28	-590.23	1067.1	310.19	-607.03	1043.5	257.52	-461.91	561.63	110.09	-450.34	574.4	245.92	-342.92	575.91	434.66	-302.15	567.81	302.75	-522.96	117.12	142.41	-529.87	121.85	218.34	-587.6	192.64	373.9	-536.45	194.67	284.03	-505.02	814.24	83.468	-439.98	806.22	77.173	-442.21	731.3	89.17	-509.3	738.55	99.598	-431.98	799.76	442.61	-366.63	821.68	447.89	-350.12	750.62	447.88	-413.62	727.2	438.14	-457.6	508.44	119.66	-415.49	523.51	132.62	-416.11	473.51	141.16	-463.5	454.93	127.06	-471.35	477.8	410.91	-411.46	452.25	438.1	-441.42	384.66	427.64	-501.5	407.82	402.61	-585.88	43.151	143.48	-597.98	69.659	177.43	-589.33	38.701	209.45	-664.86	169.07	333	-653.89	193.32	297.66	-641.71	159.04	270.86	-367.04	53.13	247.93	-377.4	44.708	142.02	-314.37	64.435	226.42	-440.95	67.284	330.53	-501.69	74.663	425.38	-410.08	62.719	390.2
85	0.35116	-450.75	1541.3	429.83	-437.45	1563.9	40.51	-324.89	1848.2	252.4	-343.57	1509.3	240.94	-485.06	1596.5	236.03	-447.17	1100.5	82.252	-457.92	1128.6	420.22	-382.73	1044.4	115.31	-387.74	1048.7	385.49	-473.3	966.56	64.767	-465.42	977.21	439	-591.61	1069.7	202.44	-585.21	1067.2	310.4	-602.04	1043.6	257.72	-459.45	561.68	110.15	-447.81	574.4	245.98	-334.89	577	434.62	-294.45	569.26	302.78	-522.63	117.4	142.46	-529.47	122.15	218.38	-572.38	188.44	374.41	-521.01	191.45	284.65	-501.25	814.52	83.615	-436.31	806.19	77.157	-438.89	731.3	89.18	-505.62	738.99	99.499	-425.37	800.46	443.02	-360.18	822.82	447.97	-343.17	751.84	447.96	-406.58	728	438.55	-455.37	508.49	119.7	-413.18	523.38	132.62	-414.03	473.39	141.17	-461.53	455.01	127.11	-461.96	476.2	410.93	-401.58	451.93	438.25	-430.16	383.71	427.9	-490.69	405.6	402.77	-585.77	43.496	143.5	-597.82	70.001	177.45	-589.09	38.963	209.47	-648.86	162.93	333.5	-638.55	187.41	298.06	-625.43	153.29	271.41	-366.89	52.925	247.93	-377.28	44.583	142.03	-314.19	64.095	226.41	-422.58	66.58	331.67	-483.72	72.747	426.38	-391.76	62.915	391.4
86	0.35534	-445.42	1541.3	429.93	-432.06	1564.2	40.659	-319.46	1848.2	252.75	-338.27	1509.3	241.02	-479.69	1596.7	236.19	-442.32	1100.6	82.164	-452.79	1128.7	420.24	-377.88	1044.4	115.15	-382.51	1049	385.34	-468.83	966.61	64.799	-459.97	977.61	439.14	-586.72	1069.8	202.61	-580.19	1067.3	310.61	-597.05	1043.7	257.93	-456.99	561.74	110.21	-445.29	574.4	246.04	-326.97	578.04	434.58	-286.87	570.64	302.82	-522.32	117.69	142.5	-529.06	122.44	218.42	-557.07	184.27	374.93	-505.49	188.25	285.28	-497.49	814.8	83.768	-432.66	806.15	77.156	-435.58	731.29	89.197	-501.92	739.47	99.375	-418.85	801.11	443.43	-353.86	823.9	448.06	-336.32	752.98	448.04	-399.63	728.74	438.94	-453.15	508.54	119.74	-410.88	523.24	132.63	-411.96	473.26	141.18	-459.56	455.1	127.15	-452.62	474.51	410.92	-391.78	451.55	438.4	-418.92	382.73	428.17	-479.89	403.33	402.92	-585.66	43.84	143.52	-597.66	70.345	177.47	-588.88	39.237	209.5	-632.69	156.79	333.97	-623	181.5	298.46	-608.97	147.56	271.95	-366.74	52.729	247.92	-377.17	44.464	142.04	-314.02	63.764	226.41	-404.17	65.978	332.85	-465.72	70.932	427.42	-373.43	63.218	392.64
